<?xml version="1.0" encoding="utf-8"?>
<!-- Generator: Adobe Illustrator 24.1.0, SVG Export Plug-In . SVG Version: 6.00 Build 0)  -->
<svg version="1.1" id="Layer_1" xmlns="http://www.w3.org/2000/svg" xmlns:xlink="http://www.w3.org/1999/xlink" x="0px" y="0px"
	 viewBox="0 0 215.4 72.1" style="enable-background:new 0 0 215.4 72.1;" xml:space="preserve">
<style type="text/css">
	.st0{fill:#FFFFFF;}
	.st1{enable-background:new    ;}
</style>
<g id="P98qza.tif_1_">
	<g>
		<g>
			<path class="st0" d="M7.1,13.3c0.2-0.4,0.5-0.6,0.9-0.8c3.5-2,7.1-4.1,10.6-6.1c0.5-0.3,1-0.3,1.5,0c3.6,2.1,7.2,4.2,10.8,6.2
				c0.4,0.2,0.6,0.6,0.6,1.1c0,7.8,0,15.6,0,23.4c0,0.1,0,0.2,0,0.4c0.1-0.1,0.2-0.1,0.3-0.2c2.9-1.7,5.9-3.4,8.8-5.1
				c0.2-0.1,0.3-0.2,0.3-0.5c0-3.9,0-7.9,0-11.8c0-0.5,0.2-0.9,0.7-1.1c3.7-2.1,7.3-4.2,10.9-6.3c0.4-0.2,0.8-0.2,1.2,0
				c3.6,2.1,7.3,4.2,10.9,6.3c0.4,0.3,0.7,0.6,0.7,1.1c0,4.1,0,8.3,0,12.4c0,0.5-0.2,0.9-0.7,1.1c-3.4,2-6.9,4-10.3,5.9
				c-0.2,0.1-0.3,0.3-0.3,0.5c0,3.9,0,7.8,0,11.7c0,0.6-0.2,0.9-0.7,1.2c-7.3,4.2-14.6,8.4-22,12.6c-0.6,0.3-1,0.3-1.6,0
				C22.4,61.4,15.1,57.2,7.8,53c-0.3-0.2-0.6-0.4-0.7-0.8C7.1,39.3,7.1,26.3,7.1,13.3z M8.9,15.2c0,0.1,0,0.2,0,0.3
				c0,11.9,0,23.8,0,35.7c0,0.2,0.1,0.3,0.3,0.5c6.7,3.8,13.4,7.7,20.1,11.6c0.1,0,0.2,0.1,0.3,0.1c0-0.2,0-0.2,0-0.3
				c0-3.4,0-6.7,0-10.1c0-0.3-0.1-0.4-0.3-0.5c-3.4-1.9-6.8-3.8-10.2-5.8c-0.5-0.3-0.8-0.7-0.8-1.3c0-8.2,0-16.3,0-24.5
				c0-0.2-0.1-0.4-0.3-0.5c-2.9-1.7-5.9-3.4-8.8-5C9.2,15.3,9.1,15.2,8.9,15.2z M31.4,63.4c0.1-0.1,0.2-0.1,0.3-0.2
				c6.7-3.8,13.4-7.7,20-11.5c0.2-0.1,0.3-0.2,0.3-0.5c0-3.3,0-6.7,0-10c0-0.1,0-0.2,0-0.3c-0.1,0.1-0.2,0.1-0.3,0.2
				c-6.7,3.8-13.4,7.6-20.1,11.4c-0.2,0.1-0.3,0.2-0.3,0.5c0,3.4,0,6.7,0,10.1C31.4,63.1,31.4,63.2,31.4,63.4z M21.1,45.7
				c0.1,0.1,0.2,0.1,0.3,0.2c3,1.7,5.9,3.3,8.9,5c0.2,0.1,0.3,0.1,0.5,0c6.7-3.8,13.4-7.7,20.2-11.5c0.1,0,0.1-0.1,0.2-0.2
				C51,39.1,50.9,39,50.8,39c-2.9-1.7-5.8-3.3-8.7-5c-0.2-0.2-0.4-0.1-0.7,0c-5.4,3.1-10.8,6.2-16.2,9.4
				C23.9,44.1,22.5,44.9,21.1,45.7z M20.2,44.1c0.1-0.1,0.2-0.1,0.3-0.1c3-1.7,5.9-3.4,8.9-5.1c0.2-0.1,0.2-0.2,0.2-0.5
				c0-7.6,0-15.2,0-22.9c0-0.1,0-0.2,0-0.4c-0.1,0.1-0.2,0.1-0.3,0.2c-2.9,1.7-5.9,3.4-8.8,5.1c-0.2,0.1-0.3,0.3-0.3,0.5
				c0,7.6,0,15.2,0,22.8C20.2,43.8,20.2,43.9,20.2,44.1z M9.9,13.5c0.1,0.1,0.1,0.1,0.2,0.1c3,1.7,6,3.4,9,5.2
				c0.2,0.1,0.3,0.1,0.4,0c3-1.7,5.9-3.4,8.9-5.1c0.1-0.1,0.2-0.1,0.3-0.2c-0.1-0.1-0.1-0.1-0.2-0.1c-3-1.7-6-3.4-8.9-5.2
				c-0.2-0.1-0.3-0.1-0.4,0c-2.8,1.6-5.6,3.2-8.3,4.8C10.4,13.2,10.2,13.4,9.9,13.5z M43.7,19.9c0.1,0,0.1,0.1,0.2,0.1
				c3,1.7,6,3.4,9,5.2c0.2,0.1,0.3,0.1,0.4,0c3-1.7,5.9-3.4,8.9-5.1c0.1,0,0.1-0.1,0.2-0.1c-0.1,0-0.1-0.1-0.2-0.1
				c-3-1.7-6-3.4-9-5.2c-0.2-0.1-0.3-0.1-0.4,0c-3,1.7-5.9,3.4-8.9,5.1C43.8,19.8,43.8,19.8,43.7,19.9z M54,37.6
				c0.2-0.1,0.2-0.1,0.3-0.2c2.9-1.7,5.8-3.4,8.8-5c0.2-0.1,0.3-0.3,0.3-0.5c0-3.3,0-6.6,0-10c0-0.1,0-0.2,0-0.4
				c-0.1,0.1-0.2,0.1-0.3,0.2c-2.9,1.7-5.9,3.4-8.8,5.1c-0.2,0.1-0.3,0.2-0.3,0.5c0,3.3,0,6.7,0,10C54,37.3,54,37.4,54,37.6z
				 M52.1,37.6c0-0.1,0-0.2,0-0.3c0-3.4,0-6.7,0-10.1c0-0.2-0.1-0.3-0.3-0.4c-2.9-1.7-5.9-3.4-8.8-5.1c-0.1,0-0.2-0.1-0.3-0.2
				c0,0.2,0,0.3,0,0.4c0,3.3,0,6.7,0,10c0,0.2,0.1,0.4,0.3,0.5c2.7,1.5,5.3,3.1,8,4.6C51.3,37.2,51.7,37.4,52.1,37.6z"/>
		</g>
	</g>
</g>
<g>
	<g class="st1">
		<path class="st0" d="M106.8,25.2v25.8h-4.2V34.3c0-0.7,0-1.4,0.1-2.2l-7.8,14.6c-0.4,0.7-0.9,1.1-1.7,1.1h-0.7
			c-0.8,0-1.3-0.4-1.7-1.1L83,32.1c0,0.4,0.1,0.8,0.1,1.2c0,0.4,0,0.7,0,1.1v16.6h-4.2V25.2h3.6c0.2,0,0.4,0,0.6,0
			c0.2,0,0.3,0,0.4,0.1c0.1,0,0.2,0.1,0.3,0.2c0.1,0.1,0.2,0.2,0.3,0.4l7.7,14.3c0.2,0.4,0.4,0.8,0.6,1.2c0.2,0.4,0.3,0.8,0.5,1.2
			c0.2-0.4,0.3-0.9,0.5-1.3s0.4-0.8,0.6-1.2l7.6-14.3c0.1-0.2,0.2-0.3,0.3-0.4c0.1-0.1,0.2-0.2,0.3-0.2c0.1,0,0.3-0.1,0.4-0.1
			c0.2,0,0.3,0,0.6,0H106.8z"/>
		<path class="st0" d="M114.7,42.4c0.1,0.9,0.2,1.7,0.5,2.4c0.3,0.7,0.6,1.2,1,1.7s0.9,0.8,1.5,1s1.2,0.3,2,0.3
			c0.7,0,1.3-0.1,1.8-0.2c0.5-0.2,1-0.4,1.4-0.6c0.4-0.2,0.7-0.4,1-0.6c0.3-0.2,0.6-0.2,0.8-0.2c0.4,0,0.6,0.1,0.8,0.4l1.3,1.6
			c-0.5,0.6-1,1-1.6,1.4c-0.6,0.4-1.2,0.7-1.9,0.9c-0.7,0.2-1.3,0.4-2,0.5c-0.7,0.1-1.3,0.1-2,0.1c-1.3,0-2.5-0.2-3.5-0.6
			c-1.1-0.4-2-1-2.9-1.9c-0.8-0.8-1.4-1.8-1.9-3.1c-0.5-1.2-0.7-2.6-0.7-4.2c0-1.2,0.2-2.4,0.6-3.5c0.4-1.1,1-2.1,1.7-2.9
			c0.8-0.8,1.7-1.5,2.8-1.9s2.3-0.7,3.7-0.7c1.2,0,2.2,0.2,3.2,0.6s1.8,0.9,2.5,1.6c0.7,0.7,1.3,1.6,1.6,2.6c0.4,1,0.6,2.2,0.6,3.5
			c0,0.7-0.1,1.1-0.2,1.3s-0.4,0.3-0.8,0.3H114.7z M123.1,39.7c0-0.6-0.1-1.1-0.2-1.6c-0.2-0.5-0.4-0.9-0.7-1.3
			c-0.3-0.4-0.7-0.7-1.2-0.9s-1.1-0.3-1.7-0.3c-1.3,0-2.3,0.4-3,1.1c-0.7,0.7-1.2,1.8-1.4,3.1H123.1z"/>
		<path class="st0" d="M134.5,35.8c0.6-1.1,1.2-2,2-2.6s1.7-0.9,2.8-0.9c0.8,0,1.5,0.2,2,0.6l-0.3,3.3c-0.1,0.2-0.1,0.4-0.3,0.5
			s-0.3,0.1-0.5,0.1c-0.2,0-0.4,0-0.8-0.1c-0.4-0.1-0.7-0.1-1-0.1c-0.5,0-0.9,0.1-1.3,0.2c-0.4,0.1-0.7,0.3-1,0.6s-0.6,0.6-0.8,1
			c-0.2,0.4-0.4,0.8-0.7,1.3v11.3h-4.4V32.7h2.6c0.5,0,0.8,0.1,0.9,0.2c0.2,0.2,0.3,0.4,0.4,0.9L134.5,35.8z"/>
		<path class="st0" d="M159.5,33.3v1.6c0,0.5-0.3,0.8-0.9,1l-1.6,0.3c0.2,0.6,0.4,1.3,0.4,2.1c0,0.9-0.2,1.7-0.5,2.5
			c-0.4,0.7-0.9,1.4-1.5,1.9s-1.4,0.9-2.3,1.2c-0.9,0.3-1.8,0.4-2.8,0.4c-0.4,0-0.7,0-1-0.1c-0.3,0-0.7-0.1-1-0.1
			c-0.6,0.3-0.9,0.7-0.9,1.2c0,0.4,0.2,0.6,0.5,0.8c0.3,0.2,0.8,0.3,1.3,0.4s1.2,0.1,1.9,0.1c0.7,0,1.4,0.1,2.2,0.1
			c0.7,0.1,1.5,0.2,2.2,0.3c0.7,0.1,1.3,0.4,1.9,0.7c0.6,0.3,1,0.8,1.3,1.3s0.5,1.3,0.5,2.1c0,0.8-0.2,1.6-0.6,2.4s-1,1.4-1.7,2
			c-0.8,0.6-1.7,1.1-2.8,1.4c-1.1,0.4-2.3,0.5-3.8,0.5c-1.4,0-2.6-0.1-3.6-0.4c-1-0.3-1.9-0.6-2.5-1.1c-0.7-0.4-1.2-1-1.5-1.5
			s-0.5-1.2-0.5-1.8c0-0.9,0.3-1.6,0.8-2.1s1.2-1,2.1-1.4c-0.5-0.2-0.9-0.6-1.2-1s-0.4-1-0.4-1.6c0-0.3,0-0.6,0.2-0.8
			c0.1-0.3,0.2-0.6,0.4-0.9s0.4-0.6,0.7-0.8c0.3-0.3,0.6-0.5,1.1-0.7c-0.9-0.5-1.7-1.2-2.2-2c-0.5-0.8-0.8-1.8-0.8-2.9
			c0-0.9,0.2-1.7,0.5-2.5c0.4-0.7,0.9-1.4,1.5-1.9c0.6-0.5,1.4-0.9,2.3-1.2c0.9-0.3,1.9-0.4,2.9-0.4c0.8,0,1.5,0.1,2.2,0.2
			c0.7,0.2,1.3,0.4,1.9,0.7H159.5z M155.1,51.8c0-0.4-0.1-0.6-0.3-0.9c-0.2-0.2-0.5-0.4-0.9-0.5s-0.8-0.2-1.3-0.3s-1-0.1-1.6-0.1
			c-0.6,0-1.1-0.1-1.7-0.1c-0.6,0-1.2-0.1-1.7-0.1c-0.5,0.3-0.9,0.6-1.2,1c-0.3,0.4-0.5,0.8-0.5,1.3c0,0.3,0.1,0.6,0.2,0.9
			c0.2,0.3,0.4,0.5,0.8,0.7s0.8,0.4,1.4,0.5c0.6,0.1,1.2,0.2,2,0.2c0.8,0,1.5-0.1,2.1-0.2c0.6-0.1,1.1-0.3,1.5-0.5
			c0.4-0.2,0.7-0.5,0.8-0.8C155,52.5,155.1,52.1,155.1,51.8z M150.1,41.4c0.5,0,1-0.1,1.4-0.2c0.4-0.1,0.7-0.4,1-0.6
			s0.5-0.6,0.6-0.9c0.1-0.4,0.2-0.8,0.2-1.2c0-0.9-0.3-1.6-0.8-2.1c-0.5-0.5-1.4-0.8-2.4-0.8c-1.1,0-1.9,0.3-2.4,0.8
			c-0.5,0.5-0.8,1.2-0.8,2.1c0,0.4,0.1,0.8,0.2,1.2s0.3,0.7,0.6,1c0.3,0.3,0.6,0.5,1,0.6C149.1,41.3,149.6,41.4,150.1,41.4z"/>
		<path class="st0" d="M165.3,42.4c0.1,0.9,0.2,1.7,0.5,2.4c0.3,0.7,0.6,1.2,1,1.7s0.9,0.8,1.5,1s1.2,0.3,2,0.3
			c0.7,0,1.3-0.1,1.8-0.2c0.5-0.2,1-0.4,1.4-0.6c0.4-0.2,0.7-0.4,1-0.6c0.3-0.2,0.6-0.2,0.8-0.2c0.4,0,0.6,0.1,0.8,0.4l1.3,1.6
			c-0.5,0.6-1,1-1.6,1.4c-0.6,0.4-1.2,0.7-1.9,0.9c-0.7,0.2-1.3,0.4-2,0.5c-0.7,0.1-1.3,0.1-2,0.1c-1.3,0-2.5-0.2-3.5-0.6
			c-1.1-0.4-2-1-2.9-1.9c-0.8-0.8-1.4-1.8-1.9-3.1c-0.5-1.2-0.7-2.6-0.7-4.2c0-1.2,0.2-2.4,0.6-3.5c0.4-1.1,1-2.1,1.7-2.9
			c0.8-0.8,1.7-1.5,2.8-1.9s2.3-0.7,3.7-0.7c1.2,0,2.2,0.2,3.2,0.6s1.8,0.9,2.5,1.6c0.7,0.7,1.3,1.6,1.6,2.6c0.4,1,0.6,2.2,0.6,3.5
			c0,0.7-0.1,1.1-0.2,1.3s-0.4,0.3-0.8,0.3H165.3z M173.7,39.7c0-0.6-0.1-1.1-0.2-1.6c-0.2-0.5-0.4-0.9-0.7-1.3
			c-0.3-0.4-0.7-0.7-1.2-0.9s-1.1-0.3-1.7-0.3c-1.3,0-2.3,0.4-3,1.1c-0.7,0.7-1.2,1.8-1.4,3.1H173.7z"/>
		<path class="st0" d="M196.9,24.5v26.5h-2.7c-0.6,0-1-0.3-1.1-0.8l-0.4-1.8c-0.7,0.8-1.6,1.5-2.5,2c-1,0.5-2.1,0.8-3.3,0.8
			c-1,0-1.9-0.2-2.7-0.6c-0.8-0.4-1.5-1-2.1-1.8c-0.6-0.8-1.1-1.8-1.4-2.9c-0.3-1.2-0.5-2.5-0.5-4c0-1.4,0.2-2.6,0.6-3.8
			c0.4-1.2,0.9-2.2,1.6-3c0.7-0.9,1.5-1.5,2.5-2c1-0.5,2-0.7,3.2-0.7c1,0,1.9,0.2,2.6,0.5c0.7,0.3,1.4,0.8,1.9,1.3v-9.6H196.9z
			 M192.5,37.3c-0.5-0.6-1-1-1.6-1.3c-0.6-0.2-1.2-0.4-1.9-0.4c-0.7,0-1.3,0.1-1.8,0.4c-0.5,0.2-1,0.6-1.4,1.1
			c-0.4,0.5-0.7,1.1-0.9,1.9s-0.3,1.7-0.3,2.8c0,1.1,0.1,2,0.3,2.7c0.2,0.7,0.4,1.3,0.7,1.8c0.3,0.5,0.7,0.8,1.2,1
			c0.5,0.2,1,0.3,1.6,0.3c0.9,0,1.7-0.2,2.3-0.6c0.6-0.4,1.2-0.9,1.8-1.6V37.3z"/>
	</g>
</g>
</svg>
